<?xml version="1.0" standalone="no"?>
<!DOCTYPE svg PUBLIC "-//W3C//DTD SVG 20010904//EN"
 "http://www.w3.org/TR/2001/REC-SVG-20010904/DTD/svg10.dtd">
<svg version="1.0" xmlns="http://www.w3.org/2000/svg"
 width="500.000000pt" height="500.000000pt" viewBox="0 0 500.000000 500.000000"
 preserveAspectRatio="xMidYMid meet">

<g transform="translate(0.000000,500.000000) scale(0.100000,-0.100000)"
fill="#000000" stroke="none">
<path d="M2377 3602 c-42 -46 -6 -123 56 -121 l32 2 -30 4 c-33 5 -55 27 -55
56 0 16 5 18 33 12 24 -5 28 -4 17 4 -8 6 -23 11 -32 11 -21 0 -24 20 -6 38 7
7 10 12 7 12 -3 0 -13 -8 -22 -18z"/>
<path d="M2460 3605 c7 -8 10 -25 7 -37 -6 -22 -5 -22 8 -4 15 20 5 56 -17 56
-7 0 -6 -5 2 -15z"/>
<path d="M2583 3614 c-20 -9 -35 -68 -23 -98 9 -25 56 -53 68 -41 3 3 0 5 -6
5 -22 0 -52 40 -52 68 0 15 7 38 16 50 8 12 14 22 12 21 -2 0 -8 -3 -15 -5z"/>
<path d="M2650 3616 c0 -2 7 -9 15 -16 9 -7 15 -8 15 -2 0 5 -7 12 -15 16 -8
3 -15 4 -15 2z"/>
<path d="M2267 3591 c3 -12 10 -21 15 -21 13 0 6 32 -9 37 -7 3 -9 -3 -6 -16z"/>
<path d="M2185 3562 c8 -15 15 -46 17 -70 2 -25 8 -42 16 -42 14 0 15 4 3 50
-5 19 -12 47 -15 63 -4 15 -13 27 -20 27 -12 0 -12 -4 -1 -28z"/>
<path d="M2757 3572 c-23 -25 -22 -86 1 -103 14 -11 15 -11 5 1 -23 25 -10 91
21 112 8 6 8 8 0 8 -6 0 -18 -8 -27 -18z"/>
<path d="M2849 3562 c14 -27 7 -68 -16 -94 -9 -10 -11 -18 -5 -18 36 0 56 96
25 121 -15 13 -15 12 -4 -9z"/>
<path d="M2091 3508 c12 -29 23 -59 26 -65 3 -7 11 -13 18 -13 12 0 0 32 -30
80 -5 8 -10 21 -10 29 0 8 -6 16 -13 19 -8 2 -6 -13 9 -50z"/>
<path d="M2960 3533 c0 -10 -11 -39 -24 -65 -17 -34 -19 -48 -10 -52 6 -2 14
3 17 12 2 9 14 41 26 70 17 43 18 52 6 52 -8 0 -15 -8 -15 -17z"/>
<path d="M2007 3533 c-13 -12 -7 -33 9 -33 13 0 14 3 5 13 -6 8 -8 17 -4 20 3
4 4 7 1 7 -2 0 -8 -3 -11 -7z"/>
<path d="M3038 3514 c10 -18 -9 -85 -30 -108 -12 -14 -10 -26 5 -26 8 0 19 17
26 38 30 91 30 88 9 101 -17 11 -19 10 -10 -5z"/>
<path d="M1895 3491 c-3 -5 -1 -12 5 -16 5 -3 10 1 10 9 0 18 -6 21 -15 7z"/>
<path d="M2022 3478 c-26 -26 -2 -78 36 -78 13 0 11 4 -7 16 -17 12 -22 24
-19 45 3 16 4 29 3 29 0 0 -6 -5 -13 -12z"/>
<path d="M3127 3466 c3 -16 -4 -42 -20 -70 -19 -33 -22 -46 -12 -50 9 -3 21
16 36 55 20 54 20 62 7 76 -14 13 -15 12 -11 -11z"/>
<path d="M1810 3446 c0 -11 96 -96 109 -96 7 0 -10 21 -39 48 -52 46 -70 59
-70 48z"/>
<path d="M3183 3326 c-46 -71 -58 -96 -47 -100 8 -3 14 0 14 6 0 6 25 48 55
93 30 45 55 85 55 89 0 21 -23 -5 -77 -88z"/>
<path d="M1775 3369 c41 -42 73 -64 81 -56 8 8 -89 97 -106 97 -8 0 2 -17 25
-41z"/>
<path d="M3308 3362 c5 -35 -19 -82 -43 -82 -7 0 -17 -5 -21 -11 -13 -21 40 2
64 27 25 29 28 52 9 79 -13 16 -14 15 -9 -13z"/>
<path d="M1647 3357 c-3 -9 -3 -17 1 -17 4 0 25 -25 46 -55 21 -30 43 -52 47
-49 5 2 -6 24 -24 47 -18 23 -39 53 -48 67 -13 20 -16 21 -22 7z"/>
<path d="M1511 3293 c-1 -6 18 -35 42 -64 23 -28 49 -61 58 -72 10 -12 19 -16
22 -9 4 5 -13 32 -38 58 l-45 49 23 19 22 18 -27 -15 c-25 -15 -27 -15 -42 6
-8 12 -15 17 -15 10z"/>
<path d="M3407 3283 c-10 -9 -9 -23 2 -23 5 0 11 7 15 15 5 15 -5 20 -17 8z"/>
<path d="M3345 3230 c-15 -17 -16 -24 -7 -45 6 -14 17 -25 24 -25 10 0 10 2 0
9 -21 13 -10 54 18 68 23 12 23 13 4 13 -11 0 -29 -9 -39 -20z"/>
<path d="M3441 3194 c-38 -43 -49 -64 -36 -64 9 0 54 54 55 64 0 5 8 15 17 22
10 7 15 15 12 19 -4 3 -25 -15 -48 -41z"/>
<path d="M3550 3161 c0 -6 -22 -28 -49 -49 -35 -28 -46 -43 -39 -50 7 -7 18
-1 36 20 15 17 39 39 54 48 25 15 27 19 13 30 -10 8 -15 9 -15 1z"/>
<path d="M1460 3151 c39 -10 57 -23 74 -56 15 -27 16 -28 16 -7 0 35 -43 72
-82 71 -30 -1 -30 -2 -8 -8z"/>
<path d="M1400 3102 c0 -34 52 -82 87 -81 l28 1 -28 8 c-38 11 -57 29 -73 65
-12 27 -13 28 -14 7z"/>
<path d="M3605 3088 c-6 -12 -29 -37 -52 -54 -27 -20 -38 -35 -32 -41 13 -13
99 73 99 99 0 24 -3 23 -15 -4z"/>
<path d="M1266 3031 c-4 -5 3 -7 14 -4 23 6 26 13 6 13 -8 0 -17 -4 -20 -9z"/>
<path d="M3643 2955 c-43 -54 -52 -75 -33 -75 6 0 10 5 10 11 0 6 16 29 35 50
19 22 35 46 35 54 0 8 -1 15 -2 14 -2 0 -22 -24 -45 -54z"/>
<path d="M1349 2970 c-82 -45 -79 -45 -100 -32 -21 13 -26 3 -7 -16 19 -19 37
-15 90 19 29 19 56 29 68 26 25 -6 26 -1 2 12 -14 7 -28 5 -53 -9z"/>
<path d="M2408 2980 c-247 -42 -352 -276 -190 -422 52 -47 98 -70 245 -124
159 -59 223 -90 270 -133 69 -62 85 -138 46 -218 -64 -131 -249 -181 -404
-108 -60 29 -157 113 -196 170 -13 19 -27 35 -31 35 -5 0 -8 -31 -8 -68 l0
-68 55 -33 c138 -84 261 -107 398 -77 168 38 280 163 264 297 -16 129 -90 190
-342 279 -211 74 -286 125 -301 205 -17 94 60 205 168 239 57 18 161 23 214
10 69 -16 146 -77 191 -150 10 -16 12 -7 12 53 l1 72 -52 16 c-112 32 -242 41
-340 25z"/>
<path d="M3725 2920 c-3 -5 1 -10 10 -10 9 0 13 5 10 10 -3 6 -8 10 -10 10 -2
0 -7 -4 -10 -10z"/>
<path d="M3508 2878 c6 -6 18 -8 28 -6 14 3 12 5 -9 10 -19 3 -25 2 -19 -4z"/>
<path d="M1365 2865 c-25 -12 -26 -14 -9 -15 12 0 27 7 34 15 15 18 14 18 -25
0z"/>
<path d="M3875 2001 c-5 -26 -16 -37 -49 -52 -31 -14 -36 -19 -18 -19 30 0 72
-42 72 -72 0 -18 5 -13 19 18 15 33 26 44 52 49 l33 8 -36 14 c-26 11 -40 25
-51 51 l-14 36 -8 -33z"/>
<path d="M1099 1994 c-8 -16 -28 -35 -46 -43 l-32 -14 32 -16 c18 -9 38 -29
46 -45 l14 -29 13 32 c8 19 26 37 45 45 l31 13 -31 11 c-21 7 -36 22 -45 43
l-13 32 -14 -29z"/>
<path d="M1873 1680 c-46 -11 -63 -28 -63 -61 0 -38 28 -55 112 -69 77 -14
104 -34 73 -56 -31 -23 -107 -18 -148 10 -29 20 -38 22 -47 11 -25 -30 90 -82
159 -71 73 12 114 72 73 109 -10 9 -51 23 -91 30 -82 16 -101 28 -81 52 17 20
98 20 128 -1 12 -8 27 -12 32 -9 46 28 -74 73 -147 55z"/>
<path d="M2100 1570 c0 -111 1 -120 19 -120 15 0 19 10 23 52 6 58 32 88 77
88 46 0 64 -21 69 -84 4 -48 7 -56 24 -56 19 0 20 5 16 65 -5 84 -20 100 -92
100 -39 0 -60 -5 -75 -19 l-21 -19 0 56 c0 50 -2 57 -20 57 -19 0 -20 -7 -20
-120z"/>
<path d="M2387 1676 c-8 -20 20 -43 35 -28 14 14 3 42 -16 42 -7 0 -16 -6 -19
-14z"/>
<path d="M2580 1613 c-8 -3 -23 -12 -32 -21 -16 -14 -18 -13 -18 1 0 10 -8 17
-20 17 -18 0 -20 -7 -20 -80 0 -73 2 -80 20 -80 17 0 20 7 20 48 0 57 28 92
74 92 54 0 66 -15 66 -80 0 -58 1 -60 26 -60 27 0 27 0 21 62 -5 51 -10 67
-32 85 -25 22 -70 29 -105 16z"/>
<path d="M2810 1598 c-69 -47 -44 -128 46 -148 57 -13 159 10 151 34 -5 12
-13 12 -70 -3 -43 -10 -98 1 -117 24 -11 13 0 15 84 15 94 0 96 1 96 23 0 66
-122 101 -190 55z m128 -24 c37 -26 25 -34 -47 -34 -76 0 -93 10 -59 34 29 20
77 20 106 0z"/>
<path d="M2390 1530 c0 -73 2 -80 20 -80 18 0 20 7 20 80 0 73 -2 80 -20 80
-18 0 -20 -7 -20 -80z"/>
<path d="M1320 1230 c-38 -9 -60 -33 -60 -67 0 -31 33 -50 112 -63 74 -13 98
-30 78 -55 -21 -25 -110 -20 -154 10 -30 20 -38 22 -42 10 -14 -35 48 -68 131
-69 80 -1 115 20 115 70 0 30 -4 37 -33 49 -19 8 -57 17 -85 21 -28 3 -59 12
-69 19 -49 36 75 65 126 29 16 -12 26 -13 33 -6 16 16 -7 40 -51 52 -41 11
-52 11 -101 0z"/>
<path d="M1923 1225 c-12 -8 -23 -25 -25 -38 -2 -16 -11 -23 -30 -25 -16 -2
-28 -7 -28 -12 0 -5 12 -10 28 -12 26 -3 27 -5 30 -70 3 -60 5 -68 22 -68 18
0 20 7 20 70 l0 70 50 0 c28 0 50 5 50 10 0 6 -22 10 -50 10 -36 0 -50 4 -50
14 0 24 28 39 65 33 40 -6 55 7 26 22 -28 16 -83 13 -108 -4z"/>
<path d="M2138 1193 c-2 -22 -9 -29 -30 -31 -16 -2 -28 -7 -28 -12 0 -5 12
-10 28 -12 26 -3 27 -6 30 -61 3 -55 5 -59 35 -72 38 -16 80 -10 102 15 19 21
2 39 -20 20 -8 -6 -26 -10 -42 -8 -26 3 -28 6 -31 56 l-3 52 50 0 c28 0 51 5
51 10 0 6 -22 10 -50 10 -49 0 -50 1 -50 30 0 23 -5 30 -19 30 -14 0 -21 -8
-23 -27z"/>
<path d="M1615 1161 c-56 -23 -76 -94 -38 -132 45 -45 158 -44 204 2 36 36 21
97 -31 124 -31 16 -102 19 -135 6z m123 -37 c67 -47 -21 -124 -103 -90 -29 12
-35 20 -35 45 0 37 31 61 80 61 20 0 46 -7 58 -16z"/>
<path d="M2808 1153 c-21 -8 -38 -19 -38 -23 0 -18 19 -19 46 -5 49 25 134 18
134 -11 0 -10 -14 -14 -47 -14 -95 0 -153 -32 -137 -74 14 -36 129 -39 171 -4
13 10 17 10 20 0 8 -22 40 -33 68 -22 28 11 25 32 -3 28 -13 -2 -18 6 -20 32
-1 19 -5 45 -7 57 -11 49 -111 68 -187 36z m140 -90 c-4 -22 -79 -47 -114 -39
-40 10 -27 40 21 47 79 12 97 10 93 -8z"/>
<path d="M3152 1150 c-18 -17 -22 -18 -22 -5 0 8 -9 15 -20 15 -18 0 -20 -7
-20 -80 0 -73 2 -80 20 -80 16 0 20 7 20 34 0 86 52 136 90 86 17 -23 40 -21
40 4 0 20 -34 46 -61 46 -14 0 -35 -9 -47 -20z"/>
<path d="M3375 1161 c-57 -24 -75 -91 -36 -130 31 -31 91 -43 151 -30 28 6 54
17 57 25 8 22 -3 27 -28 14 -38 -21 -118 -15 -142 9 l-21 21 97 0 c103 0 111
5 87 51 -22 41 -110 62 -165 40z m113 -37 c34 -24 17 -34 -59 -34 -72 0 -84 8
-47 34 29 20 77 20 106 0z"/>
<path d="M2371 1080 c57 -106 75 -108 123 -13 l34 68 33 -68 c45 -90 65 -91
113 -4 50 89 52 97 27 97 -15 0 -29 -15 -51 -60 -17 -33 -32 -60 -35 -60 -3 0
-18 27 -35 60 -42 82 -63 82 -109 -2 l-34 -62 -31 62 c-24 50 -35 62 -54 62
-23 0 -23 -1 19 -80z"/>
</g>
</svg>
