<?xml version="1.0" standalone="no"?>
<!DOCTYPE svg PUBLIC "-//W3C//DTD SVG 20010904//EN"
 "http://www.w3.org/TR/2001/REC-SVG-20010904/DTD/svg10.dtd">
<svg version="1.0" xmlns="http://www.w3.org/2000/svg"
 width="1500.000000pt" height="200.000000pt" viewBox="0 0 500.000000 500.000000"
 preserveAspectRatio="xMidYMid meet">

<g transform="translate(0.000000,500.000000) scale(0.100000,-0.100000)"
fill="#000000" stroke="none">
<path d="M1794 3002 c-36 -5 -66 -46 -66 -88 0 -30 6 -43 29 -61 15 -13 34
-23 41 -23 6 0 21 -9 33 -21 16 -16 18 -23 8 -35 -13 -16 -62 -19 -89 -4 -17
9 -21 6 -26 -16 -8 -32 3 -43 49 -51 76 -12 127 22 127 85 0 44 -13 58 -77 91
-24 12 -43 28 -43 35 0 25 28 39 66 32 34 -7 35 -6 32 21 -2 21 -9 28 -33 33
-16 3 -40 4 -51 2z"/>
<path d="M1961 2855 l1 -145 24 0 c13 0 23 3 23 8 -1 4 -1 31 0 60 l1 53 51
-3 52 -3 0 -57 c0 -54 2 -58 24 -58 l23 0 0 145 0 145 -26 0 c-25 0 -25 -2
-23 -57 l3 -58 -47 -5 c-26 -4 -50 -4 -52 -1 -3 2 -5 31 -5 63 0 55 -1 58 -25
58 l-26 0 2 -145z"/>
<path d="M2241 2855 l2 -145 26 0 26 0 4 145 3 145 -32 0 -31 0 2 -145z"/>
<path d="M2703 2993 c-23 -4 -23 -7 -23 -144 l0 -139 70 0 c63 0 70 2 70 19 0
17 -8 20 -47 23 -48 3 -48 3 -48 38 0 33 2 35 38 38 28 2 37 8 37 22 0 14 -9
20 -37 22 -36 3 -38 5 -41 41 -3 35 -2 37 27 37 39 0 61 9 61 25 0 23 -45 30
-107 18z"/>
<path d="M3685 2436 l-50 -12 3 -95 c4 -109 17 -196 33 -215 8 -10 33 -14 78
-13 82 1 115 10 119 32 5 25 -18 30 -87 19 -71 -10 -81 -4 -81 49 l0 38 74 16
c74 17 97 34 71 55 -10 8 -30 7 -80 -5 -36 -8 -68 -15 -71 -15 -2 0 -4 20 -4
44 0 40 3 45 31 55 18 6 54 11 81 11 45 0 49 2 46 23 -3 19 -9 22 -58 24 -30
0 -77 -4 -105 -11z"/>
<path d="M3361 2376 c-9 -10 -7 -49 6 -157 17 -135 19 -144 41 -147 20 -3 22
1 22 42 0 57 13 59 95 16 60 -31 80 -36 89 -21 11 18 -6 39 -49 62 l-45 24 30
23 c58 45 30 130 -53 161 -41 16 -122 14 -136 -3z m137 -56 c20 -12 32 -27 30
-37 -4 -20 -44 -49 -79 -57 -30 -7 -39 10 -39 77 0 34 2 37 28 37 15 0 42 -9
60 -20z"/>
<path d="M3202 2347 c-17 -22 -110 -212 -122 -251 -10 -32 -10 -40 3 -53 20
-21 32 -11 52 40 15 40 20 44 66 54 49 10 51 9 61 -16 22 -59 75 -86 65 -33
-12 58 -90 261 -102 266 -8 3 -18 -1 -23 -7z m22 -122 c8 -33 1 -45 -29 -45
-25 0 -25 0 -8 35 20 42 29 44 37 10z"/>
<path d="M2962 2327 c-6 -7 -18 -47 -27 -89 -8 -42 -22 -94 -29 -115 l-13 -38
-35 110 c-28 90 -38 111 -55 113 -25 4 -28 -4 -58 -123 -17 -65 -25 -84 -30
-69 -24 76 -72 169 -89 172 -38 8 -38 -14 2 -104 22 -49 48 -113 58 -141 10
-29 24 -55 31 -57 24 -10 41 5 47 42 3 20 14 64 24 97 l18 60 28 -88 c27 -84
46 -110 73 -100 20 7 106 303 96 329 -6 18 -27 18 -41 1z"/>
<path d="M2415 2266 c-111 -10 -120 -13 -123 -32 -4 -25 23 -35 72 -27 32 5
32 5 44 -48 6 -30 17 -85 23 -122 11 -68 29 -91 51 -69 10 10 7 44 -25 237 -1
5 21 12 48 15 56 6 75 15 75 35 0 12 -24 27 -38 23 -4 0 -61 -6 -127 -12z"/>
<path d="M2092 2240 c-18 -4 -36 -10 -39 -13 -3 -3 3 -77 13 -164 17 -138 21
-158 38 -161 22 -5 37 15 31 43 -2 11 -7 41 -10 67 l-6 47 38 10 c21 6 52 12
68 13 23 2 31 8 33 27 4 24 4 24 -72 18 l-76 -5 0 33 c0 38 14 45 98 45 39 0
54 4 59 16 3 9 0 20 -8 25 -17 10 -121 10 -167 -1z"/>
<path d="M1824 2191 c-60 -27 -104 -101 -104 -173 0 -100 106 -165 203 -124
117 49 139 257 32 302 -46 19 -82 17 -131 -5z m131 -64 c8 -12 15 -39 15 -60
0 -111 -102 -175 -170 -107 -36 36 -22 128 26 172 36 31 105 29 129 -5z"/>
<path d="M1524 2146 c-63 -28 -96 -106 -58 -137 10 -8 50 -16 93 -19 74 -5 76
-6 79 -32 3 -23 -3 -30 -37 -47 -50 -26 -81 -26 -113 -2 -14 12 -29 16 -37 12
-20 -13 -9 -54 19 -69 53 -28 194 9 220 57 16 31 12 79 -10 101 -23 23 -45 29
-119 32 -32 2 -56 8 -58 15 -7 20 58 53 104 53 48 0 65 17 38 37 -24 17 -81
16 -121 -1z"/>
</g>
</svg>
